<svg width="22" height="23" viewBox="0 0 22 23" fill="none" xmlns="http://www.w3.org/2000/svg">
<path d="M3.73877 14.0679L4.40396 14.0679L3.73877 14.0679ZM6.16265 16.9046L6.07128 17.5634L6.07128 17.5634L6.16265 16.9046ZM15.1972 16.9046L15.2885 17.5634L15.2885 17.5634L15.1972 16.9046ZM17.2071 12.5617L16.6358 12.9025L17.2071 12.5617ZM5.94553 8.03757C5.94553 5.42335 8.06477 3.30411 10.679 3.30411V1.97372C7.33002 1.97372 4.61514 4.6886 4.61514 8.03757H5.94553ZM5.94553 9.89551V8.03757H4.61514V9.89551H5.94553ZM4.40396 14.0679C4.40396 13.641 4.52071 13.2434 4.72364 12.903L3.58092 12.2217C3.25858 12.7624 3.07358 13.3946 3.07358 14.0679L4.40396 14.0679ZM6.25401 16.2457C5.19003 16.0981 4.40396 15.1731 4.40396 14.0679L3.07358 14.0679C3.07358 15.806 4.31892 17.3205 6.07128 17.5634L6.25401 16.2457ZM10.6799 16.6283C9.35663 16.6283 7.64701 16.4388 6.25401 16.2457L6.07128 17.5634C7.47508 17.7581 9.26019 17.9587 10.6799 17.9587V16.6283ZM15.1058 16.2457C13.7128 16.4388 12.0032 16.6283 10.6799 16.6283V17.9587C12.0996 17.9587 13.8847 17.7581 15.2885 17.5634L15.1058 16.2457ZM16.9558 14.0679C16.9558 15.1731 16.1698 16.0981 15.1058 16.2457L15.2885 17.5634C17.0409 17.3205 18.2862 15.806 18.2862 14.0679H16.9558ZM16.6358 12.9025C16.839 13.243 16.9558 13.6408 16.9558 14.0679H18.2862C18.2862 13.3942 18.101 12.7617 17.7784 12.2209L16.6358 12.9025ZM15.4125 8.03757V9.89325H16.7428V8.03757H15.4125ZM10.679 3.30411C13.2932 3.30411 15.4125 5.42335 15.4125 8.03757H16.7428C16.7428 4.6886 14.028 1.97372 10.679 1.97372V3.30411ZM17.7784 12.2209C17.5042 11.7614 17.2553 11.3932 17.0499 10.982C16.8534 10.5883 16.7428 10.237 16.7428 9.89325H15.4125C15.4125 10.5257 15.6166 11.0895 15.8597 11.5763C16.0941 12.0457 16.4098 12.5236 16.6358 12.9025L17.7784 12.2209ZM4.61514 9.89551C4.61514 10.2391 4.50478 10.5901 4.30844 10.9835C4.1034 11.3945 3.85473 11.7625 3.58092 12.2217L4.72364 12.903C4.94941 12.5243 5.26477 12.0467 5.49885 11.5775C5.74165 11.091 5.94553 10.5275 5.94553 9.89551H4.61514Z" fill="#2F667F"/>
<path d="M12.6082 19.3428C12.1937 19.9662 11.4849 20.3771 10.6801 20.3771C9.87532 20.3771 9.16652 19.9662 8.75201 19.3428" stroke="#2F667F" stroke-width="1.33038" stroke-linecap="round"/>
</svg>
