<svg width="72" height="20" viewBox="0 0 72 20" fill="none" xmlns="http://www.w3.org/2000/svg">
<path fill-rule="evenodd" clip-rule="evenodd" d="M5.45781 15.6295L9.32623 12.9616L13.1947 16.2965L17.0631 10.9607L20.9315 13.6286H24.7999L28.6683 7.62587L32.5368 5.62496L36.4052 7.62587L40.2736 0.956177L44.142 7.62587L48.0104 6.29193L51.8789 2.95708L56.521 5.62496L59.6157 4.62451L63.4841 4.95799L67.3525 0.956177L71.9946 8.29284V19.6313H0.815704V14.2956L5.45781 15.6295Z" fill="url(#paint0_linear_1_2107)"/>
<path d="M1.58939 14.2956L5.45781 15.6295L9.32623 12.9616L13.1946 15.6295L17.0631 10.9607L20.9315 13.6286H24.7999L28.6683 7.62587L32.5367 5.62496L36.4052 7.62587L40.2736 0.956177L44.142 7.62587L48.0104 6.29193L51.8789 2.95708L55.7473 5.62496L59.6157 4.29102L63.4841 4.95799L67.3525 0.956177L71.221 7.62587" stroke="#539BBB" stroke-width="1.16053" stroke-linecap="round" stroke-linejoin="round"/>
<defs>
<linearGradient id="paint0_linear_1_2107" x1="-14.0132" y1="-6.82513" x2="-14.0132" y2="19.6313" gradientUnits="userSpaceOnUse">
<stop stop-color="#4592FF"/>
<stop offset="1" stop-color="white" stop-opacity="0.01"/>
</linearGradient>
</defs>
</svg>
