<svg width="72" height="20" viewBox="0 0 72 20" fill="none" xmlns="http://www.w3.org/2000/svg">
<path fill-rule="evenodd" clip-rule="evenodd" d="M4.95778 7.89342L8.8262 9.09396L12.6946 5.46565L16.563 7.86674L20.4315 13.6294H24.2999L28.1683 5.30558L32.0367 3.30467L35.9051 2.98452L39.7736 16.4306L43.642 6.07926L47.5104 3.97164L51.3788 2.18416L56.0209 3.30467L59.1157 1.53053L62.9841 1.09033L66.8525 16.4306L71.4946 15.2568V19.6321H0.315674V11.9753L4.95778 7.89342Z" fill="url(#paint0_linear_1_2092)"/>
<path d="M1.08932 11.9753L4.95775 7.89342L8.82617 9.09396L12.6946 5.57236L16.563 7.86674L20.4314 13.6294H24.2998L28.1683 5.30558L32.0367 3.30467L35.9051 2.98452L39.7735 16.4306L43.6419 6.07926L47.5104 3.97164L51.3788 2.18416L55.2472 3.30467L59.1156 1.19705L62.9841 1.09033L66.8525 16.4306L70.7209 15.3635" stroke="#539BBB" stroke-width="1.16053" stroke-linecap="round" stroke-linejoin="round"/>
<defs>
<linearGradient id="paint0_linear_1_2092" x1="-14.5133" y1="-6.63539" x2="-14.5133" y2="19.6321" gradientUnits="userSpaceOnUse">
<stop stop-color="#4592FF"/>
<stop offset="1" stop-color="white" stop-opacity="0.01"/>
</linearGradient>
</defs>
</svg>
