<svg width="72" height="20" viewBox="0 0 72 20" fill="none" xmlns="http://www.w3.org/2000/svg">
<path fill-rule="evenodd" clip-rule="evenodd" d="M5.24727 5.57176L9.11569 9.86704L12.9841 11.6545L16.8525 13.2819L20.721 8.98664L24.5894 18.2709L28.4578 14.5892L32.3262 7.94617L36.1946 3.7576L40.0631 7.14581L43.9315 4.53129L47.7999 9.38682L51.6683 10.6941L56.3104 6.3988L59.4052 1.52993L63.2736 1.86341L67.142 8.69318L71.7841 0.556152V19.6315H0.605164V11.9747L5.24727 5.57176Z" fill="url(#paint0_linear_1_2102)"/>
<path d="M1.37886 11.201L5.24728 5.57173L9.1157 9.86701L12.9841 11.7612L16.8525 13.2819L20.721 8.98661L24.5894 18.2708L28.4578 14.5892L32.3262 7.94614L36.1946 3.75758L40.0631 7.14578L43.9315 4.53126L47.6559 9.32962L51.6683 10.6941L55.5367 7.17246L59.4052 1.9701L63.2736 2.63707L67.142 8.69315L71.0104 1.43652" stroke="#539BBB" stroke-width="1.16053" stroke-linecap="round" stroke-linejoin="round"/>
<defs>
<linearGradient id="paint0_linear_1_2102" x1="-14.2238" y1="-7.3919" x2="-14.2238" y2="19.6315" gradientUnits="userSpaceOnUse">
<stop stop-color="#4592FF"/>
<stop offset="1" stop-color="white" stop-opacity="0.01"/>
</linearGradient>
</defs>
</svg>
