<svg width="72" height="20" viewBox="0 0 72 20" fill="none" xmlns="http://www.w3.org/2000/svg">
<path fill-rule="evenodd" clip-rule="evenodd" d="M4.98933 15.6295L8.85775 12.9616L12.7262 16.2965L16.5946 10.9607L20.463 13.6286H24.3314L28.1999 7.62587L32.0683 5.62496L35.9367 7.62587L39.8051 0.956177L43.6735 7.62587L47.542 6.29193L51.4104 2.95708L56.0525 5.62496L59.1472 4.62451L63.0156 4.95799L66.8841 0.956177L71.5262 8.29284V19.6313H0.347229V14.2956L4.98933 15.6295Z" fill="url(#paint0_linear_1_2087)"/>
<path d="M1.12088 14.2956L4.9893 15.6295L8.85772 12.9616L12.7261 15.6295L16.5946 10.9607L20.463 13.6286H24.3314L28.1998 7.62587L32.0682 5.62496L35.9367 7.62587L39.8051 0.956177L43.6735 7.62587L47.5419 6.29193L51.4103 2.95708L55.2788 5.62496L59.1472 4.29102L63.0156 4.95799L66.884 0.956177L70.7524 7.62587" stroke="#4592FF" stroke-width="1.16053" stroke-linecap="round" stroke-linejoin="round"/>
<defs>
<linearGradient id="paint0_linear_1_2087" x1="-14.4817" y1="-6.82513" x2="-14.4817" y2="19.6313" gradientUnits="userSpaceOnUse">
<stop stop-color="#4592FF"/>
<stop offset="1" stop-color="white" stop-opacity="0.01"/>
</linearGradient>
</defs>
</svg>
