<svg width="31" height="31" viewBox="0 0 31 31" fill="none" xmlns="http://www.w3.org/2000/svg">
<g clip-path="url(#clip0_2027_319)">
<path fill-rule="evenodd" clip-rule="evenodd" d="M17.145 16.5649L20.6922 20.112L19.7698 21.0344L16.2227 17.4873C15.5603 17.9639 14.7617 18.2549 13.8888 18.2549C11.6665 18.2549 9.86504 16.4535 9.86504 14.2311C9.86504 12.0087 11.6665 10.2073 13.8888 10.2073C16.1112 10.2073 17.9127 12.0087 17.9127 14.2311C17.9127 15.1039 17.6217 15.9025 17.145 16.5649ZM13.8888 11.4454C12.3474 11.4454 11.1031 12.6897 11.1031 14.2311C11.1031 15.7725 12.3474 17.0168 13.8888 17.0168C15.4303 17.0168 16.6746 15.7725 16.6746 14.2311C16.6746 12.6897 15.4303 11.4454 13.8888 11.4454Z" fill="#539BBB"/>
</g>
<defs>
<clipPath id="clip0_2027_319">
<rect x="3.05551" y="3.39771" width="24.7619" height="24.7619" rx="12.381" fill="white"/>
</clipPath>
</defs>
</svg>
