<svg width="208" height="115" viewBox="0 0 208 115" fill="none" xmlns="http://www.w3.org/2000/svg">
<path d="M208.615 115.681H-0.790275V94.3457H20.5451H20.9212L21.1584 94.0538L31.3727 81.4823L61.7757 58.0954L72.4325 61.9014L72.959 62.0895L73.3116 61.6556L83.5842 49.0124L83.6876 48.8851L83.7318 48.7271L94.7338 9.43425L103.537 1.36469L113.278 9.60732L113.429 9.73525L113.623 9.77675L124.539 12.1158L133.695 18.2201L144.666 44.864L144.95 45.5539L145.655 45.3098L165.388 38.4791L175.449 77.9467L175.745 79.1094L176.696 78.3778L196.978 62.7768L207.711 64.3101L207.797 64.3225L207.885 64.3156L208.776 64.2451L208.615 115.681Z" fill="#79AED4" fill-opacity="0.5" stroke="#589CED" stroke-width="1.5804"/>
</svg>
