<svg width="209" height="115" viewBox="0 0 209 115" fill="none" xmlns="http://www.w3.org/2000/svg">
<path opacity="0.5" d="M-1.0559 87.51L8.63114 96.5051L9.01084 96.8577L9.48556 96.65L22.1288 91.1186L22.2732 91.0554L22.3823 90.9416L34.6936 78.1046L46.8764 81.6707L47.6685 81.9025L47.8657 81.1012L60.3194 30.5082L72.1932 33.4767L72.8681 33.6454L73.121 32.9974L85.4176 1.48722L97.0685 8.76903L109.612 33.0725L109.764 33.3658L110.079 33.4643L122.536 37.3573L135.042 49.863L135.856 50.6766L136.323 49.6252L148.597 22.0093L160.468 29.4292L160.822 29.6501L161.204 29.483L173.624 24.0492L185.74 26.3209L198.2 41.8959L198.645 42.4522L199.244 42.067L209.089 35.7379V115.681H-0.333569L-1.0559 87.51Z" fill="#FFC4C9" stroke="#FF4F52" stroke-width="1.5804"/>
</svg>
