<svg width="22" height="23" viewBox="0 0 22 23" fill="none" xmlns="http://www.w3.org/2000/svg">
<circle cx="2.66077" cy="2.66077" r="2.66077" transform="matrix(-1 0 0 1 13.8347 8.84668)" stroke="#2F667F" stroke-width="1.33038"/>
<path d="M15.1651 5.24352L14.8325 5.81959L14.8325 5.81959L15.1651 5.24352ZM15.1651 17.771L14.8325 17.1949L14.8325 17.1949L15.1651 17.771ZM7.18278 17.771L7.51538 17.1949L7.51538 17.1949L7.18278 17.771ZM7.18278 5.24352L7.51538 5.81959L7.51538 5.81959L7.18278 5.24352ZM8.44482 3.53848L9.09289 3.68843L8.44482 3.53848ZM3.1086 9.45285L2.68561 9.96624L3.1086 9.45285ZM2.79805 8.58309L2.17003 8.36385L2.79805 8.58309ZM4.43592 17.2751L3.93079 17.7079L4.43592 17.2751ZM8.99142 20.1061L9.15459 19.4612L8.99142 20.1061ZM8.44487 19.4763L7.79679 19.6262L8.44487 19.4763ZM13.903 19.4762L14.5511 19.6261L13.903 19.4762ZM13.3565 20.1061L13.1933 19.4612L13.3565 20.1061ZM17.9118 17.275L18.417 17.7078L17.9118 17.275ZM17.1057 17.4854L16.9531 18.1329L17.1057 17.4854ZM19.2392 9.45288L19.6622 9.96626L19.2392 9.45288ZM2.79805 14.4317L3.42607 14.2125L2.79805 14.4317ZM17.1056 5.52911L17.2583 6.17655L17.1056 5.52911ZM17.9116 5.7395L18.4167 5.30668L17.9116 5.7395ZM5.2422 5.52909L5.08952 6.17652L5.2422 5.52909ZM19.2392 13.5619L19.6622 13.0486L19.2392 13.5619ZM19.5497 14.4317L20.1777 14.6509L19.5497 14.4317ZM13.9031 3.53851L13.255 3.68847L13.9031 3.53851ZM13.255 3.68847C13.4553 4.55398 14.0013 5.33968 14.8325 5.81959L15.4977 4.66744C14.999 4.37947 14.6718 3.90986 14.5512 3.38855L13.255 3.68847ZM14.8325 5.81959C15.5961 6.26044 16.4633 6.36397 17.2583 6.17655L16.953 4.88167C16.4748 4.99441 15.9563 4.93221 15.4977 4.66744L14.8325 5.81959ZM20.1777 8.36389C19.7825 7.23188 19.1802 6.19774 18.4167 5.30668L17.4065 6.17232C18.0641 6.93979 18.5821 7.8296 18.9217 8.80237L20.1777 8.36389ZM18.9344 11.5074C18.9344 10.8871 19.2166 10.3333 19.6622 9.96626L18.8162 8.9395C18.0771 9.54845 17.6041 10.473 17.6041 11.5074H18.9344ZM19.6622 13.0486C19.2166 12.6815 18.9344 12.1277 18.9344 11.5074H17.6041C17.6041 12.5418 18.0771 13.4664 18.8162 14.0753L19.6622 13.0486ZM18.417 17.7078C19.1804 16.8169 19.7826 15.7828 20.1777 14.6509L18.9217 14.2124C18.5821 15.1851 18.0642 16.0748 17.4067 16.8423L18.417 17.7078ZM15.4977 18.3471C15.9563 18.0823 16.4748 18.0201 16.9531 18.1329L17.2584 16.838C16.4635 16.6505 15.5961 16.754 14.8325 17.1949L15.4977 18.3471ZM14.5511 19.6261C14.6717 19.1048 14.9988 18.6351 15.4977 18.3471L14.8325 17.1949C14.0012 17.6749 13.4551 18.4607 13.2549 19.3263L14.5511 19.6261ZM11.1739 21.0418C11.9825 21.0418 12.7685 20.941 13.5196 20.7509L13.1933 19.4612C12.548 19.6245 11.8715 19.7114 11.1739 19.7114V21.0418ZM8.82825 20.751C9.57934 20.941 10.3653 21.0418 11.1739 21.0418V19.7114C10.4762 19.7114 9.79988 19.6245 9.15459 19.4612L8.82825 20.751ZM6.85019 18.3471C7.34903 18.6351 7.6762 19.1048 7.79679 19.6262L9.09296 19.3264C8.89275 18.4607 8.34672 17.6749 7.51538 17.1949L6.85019 18.3471ZM5.39475 18.1329C5.87299 18.0201 6.39154 18.0823 6.85019 18.3471L7.51538 17.1949C6.7517 16.754 5.88433 16.6505 5.08932 16.838L5.39475 18.1329ZM2.17003 14.651C2.56518 15.7828 3.16738 16.8169 3.93079 17.7079L4.94106 16.8423C4.28353 16.0749 3.76564 15.1851 3.42607 14.2125L2.17003 14.651ZM3.41336 11.5074C3.41336 12.1277 3.13114 12.6815 2.68562 13.0486L3.53158 14.0753C4.27068 13.4664 4.74374 12.5419 4.74374 11.5074H3.41336ZM2.68561 9.96624C3.13114 10.3333 3.41336 10.8871 3.41336 11.5074H4.74374C4.74374 10.4729 4.27068 9.54841 3.53158 8.93946L2.68561 9.96624ZM3.93104 5.30663C3.16752 6.19769 2.56522 7.23184 2.17003 8.36385L3.42607 8.80234C3.76568 7.82956 4.28365 6.93976 4.94128 6.17228L3.93104 5.30663ZM6.85019 4.66744C6.39158 4.93222 5.87307 4.99442 5.39487 4.88165L5.08952 6.17652C5.88447 6.36398 6.75176 6.26046 7.51538 5.81959L6.85019 4.66744ZM7.79675 3.38853C7.67612 3.90984 7.34897 4.37947 6.85019 4.66744L7.51538 5.81959C8.34662 5.33967 8.89262 4.55396 9.09289 3.68843L7.79675 3.38853ZM11.1739 1.97299C10.3653 1.97299 9.57929 2.0738 8.82817 2.26386L9.15452 3.55359C9.79983 3.39031 10.4762 3.30338 11.1739 3.30338V1.97299ZM13.5198 2.26391C12.7686 2.07382 11.9825 1.97299 11.1739 1.97299V3.30338C11.8716 3.30338 12.548 3.39032 13.1934 3.55364L13.5198 2.26391ZM9.09289 3.68843C9.10673 3.62859 9.13019 3.58638 9.14839 3.56424C9.16403 3.54522 9.16681 3.55048 9.15452 3.55359L8.82817 2.26386C8.21513 2.41898 7.89858 2.94842 7.79675 3.38853L9.09289 3.68843ZM3.53158 8.93946C3.47758 8.89497 3.44619 8.84684 3.4336 8.81464C3.42301 8.78757 3.43081 8.78878 3.42607 8.80234L2.17003 8.36385C1.93409 9.03967 2.29965 9.64823 2.68561 9.96624L3.53158 8.93946ZM5.08932 16.838C5.02969 16.8521 4.98156 16.8498 4.95365 16.8433C4.92966 16.8377 4.93296 16.8328 4.94106 16.8423L3.93079 17.7079C4.34148 18.1872 4.95521 18.2366 5.39475 18.1329L5.08932 16.838ZM9.15459 19.4612C9.16688 19.4643 9.1641 19.4696 9.14846 19.4506C9.13026 19.4284 9.1068 19.3862 9.09296 19.3264L7.79679 19.6262C7.89859 20.0663 8.21514 20.5958 8.82825 20.751L9.15459 19.4612ZM13.2549 19.3263C13.2411 19.3862 13.2176 19.4284 13.1994 19.4506C13.1838 19.4696 13.181 19.4643 13.1933 19.4612L13.5196 20.7509C14.1327 20.5958 14.4493 20.0663 14.5511 19.6261L13.2549 19.3263ZM17.4067 16.8423C17.4148 16.8328 17.4181 16.8377 17.3941 16.8433C17.3662 16.8498 17.3181 16.8521 17.2584 16.838L16.9531 18.1329C17.3926 18.2365 18.0063 18.1872 18.417 17.7078L17.4067 16.8423ZM18.9217 8.80237C18.9169 8.78881 18.9247 8.7876 18.9142 8.81468C18.9016 8.84687 18.8702 8.895 18.8162 8.9395L19.6622 9.96626C20.0481 9.64825 20.4137 9.0397 20.1777 8.36389L18.9217 8.80237ZM3.42607 14.2125C3.43081 14.226 3.42301 14.2272 3.4336 14.2002C3.44619 14.168 3.47758 14.1198 3.53158 14.0753L2.68562 13.0486C2.29965 13.3666 1.93409 13.9751 2.17003 14.651L3.42607 14.2125ZM17.2583 6.17655C17.3179 6.1625 17.366 6.16481 17.3939 6.17131C17.4179 6.17689 17.4146 6.18177 17.4065 6.17232L18.4167 5.30668C18.0061 4.82742 17.3925 4.77805 16.953 4.88167L17.2583 6.17655ZM4.94128 6.17228C4.93318 6.18173 4.92988 6.17686 4.95387 6.17127C4.98177 6.16477 5.0299 6.16246 5.08952 6.17652L5.39487 4.88165C4.95537 4.77801 4.34171 4.82736 3.93104 5.30663L4.94128 6.17228ZM18.8162 14.0753C18.8702 14.1198 18.9016 14.1679 18.9142 14.2001C18.9247 14.2272 18.9169 14.226 18.9217 14.2124L20.1777 14.6509C20.4137 13.9751 20.0481 13.3666 19.6622 13.0486L18.8162 14.0753ZM14.5512 3.38855C14.4493 2.94846 14.1328 2.41905 13.5198 2.26391L13.1934 3.55364C13.1811 3.55053 13.1839 3.54527 13.1995 3.56429C13.2177 3.58642 13.2412 3.62863 13.255 3.68847L14.5512 3.38855Z" fill="#2F667F"/>
</svg>
