<svg width="22" height="21" viewBox="0 0 22 21" fill="none" xmlns="http://www.w3.org/2000/svg">
<circle cx="2.66667" cy="2.66667" r="2.66667" transform="matrix(-1 0 0 1 13.3333 8.22217)" stroke="#FEFEFE" stroke-width="1.33333"/>
<path d="M14.6668 4.61111L14.3334 5.18846L14.3334 5.18846L14.6668 4.61111ZM14.6667 17.1664L15 17.7437L15 17.7437L14.6667 17.1664ZM6.6667 17.1664L7.00004 16.589L7.00004 16.589L6.6667 17.1664ZM6.6667 4.61111L7.00004 5.18846L7.00004 5.18846L6.6667 4.61111ZM7.93154 2.90229L8.58104 3.05257L7.93154 2.90229ZM8.47928 2.27114L8.31574 1.62485L8.47928 2.27114ZM2.58349 8.82978L3.00741 8.31525L2.58349 8.82978ZM4.72165 16.8802L4.87471 17.5291L4.72165 16.8802ZM3.91375 16.6694L4.42001 16.2356L3.91375 16.6694ZM8.47936 19.5067L8.31583 20.153L8.47936 19.5067ZM7.93159 18.8754L7.28207 19.0256L7.93159 18.8754ZM13.4018 18.8754L14.0513 19.0256L14.0513 19.0256L13.4018 18.8754ZM12.8541 19.5066L12.6905 18.8603L12.8541 19.5066ZM17.4196 16.6693L17.9258 17.1031L17.4196 16.6693ZM16.6117 16.8802L16.7647 16.2313L16.6117 16.8802ZM19.061 7.95813L19.6905 7.7384L19.061 7.95813ZM18.7498 8.8298L18.3259 8.31528L18.7498 8.8298ZM2.58349 12.948L2.15957 12.4335L2.58349 12.948ZM17.4193 5.10819L16.9131 5.54197L17.4193 5.10819ZM3.91399 5.10815L3.40775 4.67437L3.91399 5.10815ZM4.72182 4.89731L4.56881 5.54618L4.72182 4.89731ZM18.7498 12.948L19.1738 12.4335L18.7498 12.948ZM19.0611 13.8196L19.6905 14.0394L19.0611 13.8196ZM12.8542 2.27119L12.6907 2.91749L12.8542 2.27119ZM12.7524 3.05261C12.9531 3.92005 13.5004 4.70749 14.3334 5.18846L15.0001 4.03376C14.5002 3.74515 14.1723 3.2745 14.0514 2.75203L12.7524 3.05261ZM14.3334 5.18846C15.0987 5.63029 15.9678 5.73404 16.7645 5.54621L16.4586 4.24846C15.9793 4.36145 15.4597 4.29911 15.0001 4.03376L14.3334 5.18846ZM19.6905 7.7384C19.2944 6.60389 18.6908 5.56745 17.9256 4.67441L16.9131 5.54197C17.5722 6.31115 18.0913 7.20293 18.4316 8.17786L19.6905 7.7384ZM18.4444 10.8889C18.4444 10.2672 18.7273 9.71221 19.1738 9.34432L18.3259 8.31528C17.5852 8.92558 17.1111 9.85215 17.1111 10.8889H18.4444ZM19.1738 12.4335C18.7273 12.0656 18.4444 11.5105 18.4444 10.8889H17.1111C17.1111 11.9256 17.5852 12.8522 18.3259 13.4625L19.1738 12.4335ZM17.9258 17.1031C18.6909 16.2101 19.2944 15.1738 19.6905 14.0394L18.4316 13.5999C18.0913 14.5747 17.5723 15.4664 16.9133 16.2356L17.9258 17.1031ZM15 17.7437C15.4597 17.4783 15.9794 17.416 16.4586 17.529L16.7647 16.2313C15.968 16.0434 15.0987 16.1471 14.3334 16.589L15 17.7437ZM14.0513 19.0256C14.1722 18.5031 14.5001 18.0323 15 17.7437L14.3334 16.589C13.5002 17.07 12.953 17.8576 12.7523 18.7252L14.0513 19.0256ZM10.6666 20.4444C11.4771 20.4444 12.2648 20.3434 13.0176 20.1529L12.6905 18.8603C12.0438 19.024 11.3659 19.1111 10.6666 19.1111V20.4444ZM8.31583 20.153C9.06858 20.3434 9.85629 20.4444 10.6666 20.4444V19.1111C9.96747 19.1111 9.2896 19.024 8.64289 18.8604L8.31583 20.153ZM6.33337 17.7437C6.83332 18.0324 7.16122 18.5031 7.28207 19.0256L8.58112 18.7252C8.38046 17.8576 7.83322 17.07 7.00004 16.589L6.33337 17.7437ZM4.87471 17.5291C5.35401 17.416 5.87371 17.4783 6.33337 17.7437L7.00004 16.589C6.23466 16.1471 5.36537 16.0434 4.5686 16.2313L4.87471 17.5291ZM1.64284 14.0394C2.03886 15.1738 2.6424 16.2101 3.4075 17.1031L4.42001 16.2356C3.76103 15.4665 3.24198 14.5748 2.90166 13.6L1.64284 14.0394ZM2.88892 10.8889C2.88892 11.5106 2.60608 12.0656 2.15957 12.4335L3.00741 13.4625C3.74815 12.8522 4.22225 11.9256 4.22225 10.8889H2.88892ZM2.15957 9.3443C2.60608 9.71219 2.88892 10.2672 2.88892 10.8889H4.22225C4.22225 9.85213 3.74815 8.92555 3.00741 8.31525L2.15957 9.3443ZM3.40775 4.67437C2.64254 5.5674 2.0389 6.60385 1.64284 7.73836L2.90166 8.17782C3.24202 7.20289 3.76114 6.31111 4.42023 5.54193L3.40775 4.67437ZM6.33337 4.03376C5.87374 4.29913 5.35409 4.36146 4.87483 4.24844L4.56881 5.54618C5.36552 5.73406 6.23473 5.63031 7.00004 5.18846L6.33337 4.03376ZM7.28203 2.75201C7.16114 3.27448 6.83326 3.74515 6.33337 4.03376L7.00004 5.18846C7.83312 4.70748 8.38033 3.92002 8.58104 3.05257L7.28203 2.75201ZM10.6666 1.33333C9.85626 1.33333 9.06852 1.43436 8.31574 1.62485L8.64282 2.91744C9.28955 2.75379 9.96745 2.66667 10.6666 2.66667V1.33333ZM13.0178 1.6249C12.2649 1.43438 11.4771 1.33333 10.6666 1.33333V2.66667C11.3659 2.66667 12.0439 2.75381 12.6907 2.91749L13.0178 1.6249ZM8.58104 3.05257C8.59492 2.9926 8.61843 2.9503 8.63667 2.92811C8.65234 2.90905 8.65513 2.91432 8.64282 2.91744L8.31574 1.62485C7.70134 1.78031 7.38409 2.31093 7.28203 2.75201L8.58104 3.05257ZM3.00741 8.31525C2.95329 8.27066 2.92183 8.22242 2.90921 8.19015C2.89859 8.16302 2.90641 8.16423 2.90166 8.17782L1.64284 7.73836C1.40638 8.41569 1.77274 9.0256 2.15957 9.3443L3.00741 8.31525ZM4.5686 16.2313C4.50884 16.2454 4.4606 16.2431 4.43263 16.2366C4.40858 16.231 4.41189 16.2261 4.42001 16.2356L3.4075 17.1031C3.81911 17.5835 4.4342 17.633 4.87471 17.5291L4.5686 16.2313ZM8.64289 18.8604C8.65521 18.8635 8.65241 18.8687 8.63674 18.8497C8.6185 18.8275 8.59499 18.7852 8.58112 18.7252L7.28207 19.0256C7.3841 19.4668 7.70135 19.9975 8.31583 20.153L8.64289 18.8604ZM12.7523 18.7252C12.7384 18.7852 12.7149 18.8275 12.6967 18.8497C12.681 18.8687 12.6782 18.8634 12.6905 18.8603L13.0176 20.1529C13.6321 19.9974 13.9493 19.4667 14.0513 19.0256L12.7523 18.7252ZM16.9133 16.2356C16.9214 16.2261 16.9247 16.231 16.9007 16.2366C16.8727 16.2431 16.8245 16.2454 16.7647 16.2313L16.4586 17.529C16.8991 17.6329 17.5142 17.5835 17.9258 17.1031L16.9133 16.2356ZM18.4316 8.17786C18.4269 8.16427 18.4347 8.16305 18.4241 8.19019C18.4115 8.22245 18.38 8.2707 18.3259 8.31528L19.1738 9.34432C19.5606 9.02561 19.9269 8.41571 19.6905 7.7384L18.4316 8.17786ZM2.90166 13.6C2.90641 13.6135 2.89859 13.6148 2.90921 13.5876C2.92183 13.5554 2.95329 13.5071 3.00741 13.4625L2.15957 12.4335C1.77274 12.7522 1.40638 13.3621 1.64284 14.0394L2.90166 13.6ZM16.7645 5.54621C16.8243 5.53213 16.8725 5.53444 16.9005 5.54096C16.9245 5.54656 16.9212 5.55145 16.9131 5.54197L17.9256 4.67441C17.514 4.1941 16.899 4.14462 16.4586 4.24846L16.7645 5.54621ZM4.42023 5.54193C4.41211 5.55141 4.4088 5.54652 4.43285 5.54092C4.46082 5.53441 4.50905 5.53209 4.56881 5.54618L4.87483 4.24844C4.43435 4.14457 3.81934 4.19404 3.40775 4.67437L4.42023 5.54193ZM18.3259 13.4625C18.38 13.5071 18.4115 13.5553 18.4241 13.5876C18.4347 13.6147 18.4269 13.6135 18.4316 13.5999L19.6905 14.0394C19.9269 13.3621 19.5606 12.7522 19.1738 12.4335L18.3259 13.4625ZM14.0514 2.75203C13.9494 2.31097 13.6321 1.78038 13.0178 1.6249L12.6907 2.91749C12.6783 2.91437 12.6811 2.9091 12.6968 2.92816C12.715 2.95034 12.7386 2.99265 12.7524 3.05261L14.0514 2.75203Z" fill="#FEFEFE"/>
</svg>
